<?xml version="1.0" standalone="no"?>
<!DOCTYPE svg PUBLIC "-//W3C//DTD SVG 20010904//EN"
 "http://www.w3.org/TR/2001/REC-SVG-20010904/DTD/svg10.dtd">
<svg version="1.0" xmlns="http://www.w3.org/2000/svg"
 width="512.000000pt" height="512.000000pt" viewBox="0 0 512.000000 512.000000"
 preserveAspectRatio="xMidYMid meet">
<metadata>
Created by potrace 1.11, written by Peter Selinger 2001-2013
</metadata>
<g transform="translate(0.000000,512.000000) scale(0.100000,-0.100000)"
fill="#000000" stroke="none">
<path d="M2612 2590 l0 -2320 62 6 c33 3 83 7 109 9 26 2 56 6 65 9 9 3 37 8
61 11 87 12 293 81 413 137 l28 13 0 2228 0 2227 -369 0 -369 0 0 -2320z"/>
<path d="M1797 4132 c-16 -3 -17 -128 -17 -1823 l0 -1819 71 -36 c76 -38 269
-116 269 -108 0 2 13 -2 29 -10 16 -9 31 -13 33 -10 3 2 16 0 30 -5 14 -5 40
-12 59 -15 19 -3 45 -8 59 -10 14 -3 50 -8 80 -11 30 -3 67 -7 82 -9 l27 -3 0
1928 c0 1061 -3 1929 -7 1930 -22 3 -701 3 -715 1z"/>
<path d="M940 2400 l0 -1065 25 -37 c14 -20 25 -41 25 -46 0 -4 8 -17 19 -28
10 -11 30 -38 43 -60 114 -180 359 -426 581 -582 l47 -33 0 1458 0 1458 -370
0 -370 0 0 -1065z"/>
<path d="M3450 1993 c0 -810 3 -1473 7 -1473 22 0 219 142 312 225 122 108
299 310 384 435 l37 55 0 1115 0 1115 -370 0 -370 1 0 -1473z"/>
</g>
</svg>
